<svg xmlns="http://www.w3.org/2000/svg" version="1.1" xlink="http://www.w3.org/1999/xlink" xmlns:svgjs="http://svgjs.com/svgjs" width="100%" height="100%" preserveAspectRatio="xMidYMid meet" viewBox="0 6.336591127364954e-7 253.5980224609375 146.99591064453125" overflow="visible"><defs id="SvgjsDefs30556"></defs><g id="SvgjsG30557" transform="scale(0.5489135203345028)" opacity="1"><g id="SvgjsG30558" class="gO29bTGYs" transform="translate(127.51359826275001, -16.712787099555367) scale(2.9688343252139755)" light-content="false" non-strokable="false" fill="#ffffff"><path d="M58.12 6.286c-.442-.666-1.342-.856-2.351-.428L7.452 26.3C6.077 26.882 5 28.507 5 30c0 1.654 1.346 3 3 3h22c.551 0 1 .448 1 1v22c0 1.654 1.346 3 3 3 1.493 0 3.118-1.077 3.7-2.452L58.142 8.231c.408-.963.213-1.589-.022-1.945zM35.858 55.769C35.585 56.413 34.7 57 34 57c-.551 0-1-.448-1-1V34c0-1.654-1.346-3-3-3H8c-.551 0-1-.448-1-1 0-.7.587-1.586 1.231-1.858l47.886-20.26-20.259 47.887z"></path></g><g id="SvgjsG30559" class="text" transform="translate(226.35, 267.0143068284694) scale(1)" light-content="false" fill="#ffffff"><path d="M-218.35 0.22C-216 0.36 -213.45 0.43 -210.7 0.43C-199.6 0.43 -191.27 -2.25 -185.7 -7.61C-180.14 -12.97 -177.36 -21.16 -177.36 -32.17C-177.36 -43.12 -180.08 -51.32 -185.53 -56.77C-190.98 -62.22 -199.06 -64.94 -209.79 -64.94C-212.48 -64.94 -215.26 -64.81 -218.13 -64.53C-221 -64.26 -223.74 -63.84 -226.35 -63.29L-226.35 -0.57C-223.36 -0.19 -220.7 0.07 -218.35 0.22ZM-188.62 -10.19C-193.37 -5.51 -200.6 -3.17 -210.31 -3.17C-214.92 -3.17 -218.94 -3.43 -222.39 -3.96L-222.39 -60.25C-217.79 -60.97 -213.63 -61.34 -209.92 -61.34C-200.35 -61.34 -193.22 -58.96 -188.53 -54.21C-183.83 -49.45 -181.49 -42.11 -181.49 -32.17C-181.49 -22.2 -183.86 -14.87 -188.62 -10.19Z M-159.4 -3.61L-159.4 -31.25L-127.85 -31.25L-127.85 -34.86L-159.4 -34.86L-159.4 -60.73L-123.59 -60.73L-123.59 -64.34L-163.32 -64.34L-163.32 0L-123.15 0L-123.15 -3.61Z M-106.48 0.11C-103.68 0.56 -100.97 0.78 -98.33 0.78C-91.06 0.78 -85.45 -0.74 -81.51 -3.78C-77.57 -6.82 -75.59 -11.17 -75.59 -16.82C-75.59 -21.37 -77.04 -25.01 -79.92 -27.73C-82.8 -30.46 -87.43 -32.53 -93.81 -33.95L-96.89 -34.65C-100.43 -35.46 -103.23 -36.43 -105.31 -37.56C-107.38 -38.69 -108.88 -40.1 -109.81 -41.8C-110.73 -43.49 -111.2 -45.61 -111.2 -48.16C-111.2 -52.48 -109.68 -55.79 -106.65 -58.08C-103.63 -60.37 -99.13 -61.51 -93.16 -61.51C-87.97 -61.51 -83.01 -60.76 -78.29 -59.25L-78.29 -62.99C-80.52 -63.68 -82.9 -64.21 -85.44 -64.57C-87.98 -64.94 -90.52 -65.12 -93.07 -65.12C-97.91 -65.12 -101.99 -64.42 -105.31 -63.03C-108.62 -61.64 -111.12 -59.66 -112.78 -57.1C-114.45 -54.53 -115.28 -51.47 -115.28 -47.9C-115.28 -43.35 -113.88 -39.7 -111.09 -36.93C-108.29 -34.16 -103.97 -32.12 -98.11 -30.82L-95.03 -30.12C-91.29 -29.28 -88.32 -28.31 -86.11 -27.19C-83.91 -26.07 -82.29 -24.68 -81.25 -23C-80.2 -21.31 -79.68 -19.2 -79.68 -16.65C-79.68 -12.1 -81.23 -8.66 -84.33 -6.32C-87.43 -3.99 -92.07 -2.83 -98.24 -2.83C-103.6 -2.83 -109.01 -3.74 -114.46 -5.56L-114.46 -1.87C-111.94 -1 -109.28 -0.34 -106.48 0.11Z M-63.03 -63.34L-63.03 0L-59.08 0L-59.08 -22.69C-55.34 -22.34 -51.85 -22.17 -48.6 -22.17C-39.18 -22.17 -32.26 -23.99 -27.84 -27.63C-23.42 -31.26 -21.21 -36.62 -21.21 -43.69C-21.21 -50.93 -23.36 -56.29 -27.65 -59.75C-31.94 -63.21 -38.27 -64.94 -46.64 -64.94C-49.54 -64.94 -52.28 -64.81 -54.86 -64.55C-57.44 -64.29 -60.16 -63.89 -63.03 -63.34ZM-35.17 -27.71C-38.59 -26.39 -43.05 -25.73 -48.56 -25.73C-52.21 -25.73 -55.71 -25.95 -59.08 -26.39L-59.08 -60.34C-55.19 -61.06 -51.02 -61.42 -46.56 -61.42C-39.37 -61.42 -34.02 -59.98 -30.52 -57.1C-27.01 -54.21 -25.26 -49.7 -25.26 -43.56C-25.26 -39.56 -26.05 -36.25 -27.65 -33.62C-29.24 -31 -31.75 -29.03 -35.17 -27.71Z M31.82 0L36.04 0L10.43 -64.34L5.22 -64.34L-20.39 0L-16.26 0L-7.39 -22.43L22.95 -22.43ZM-5.96 -26.04L7.78 -60.81L21.52 -26.04Z M42.08 -32.08C42.08 -10.17 51.67 0.78 70.86 0.78C76.59 0.78 81.88 -0.1 86.72 -1.87L86.72 -5.61C83.88 -4.62 81.24 -3.92 78.79 -3.5C76.34 -3.08 73.75 -2.87 71.03 -2.87C65.78 -2.87 61.34 -3.8 57.71 -5.65C54.07 -7.51 51.25 -10.6 49.25 -14.93C47.25 -19.26 46.25 -25.04 46.25 -32.25C46.25 -42.54 48.4 -49.98 52.69 -54.58C56.97 -59.17 63.28 -61.47 71.6 -61.47C76.78 -61.47 81.83 -60.73 86.72 -59.25L86.72 -62.99C84.23 -63.71 81.77 -64.25 79.33 -64.6C76.9 -64.94 74.32 -65.12 71.6 -65.12C62.18 -65.12 54.9 -62.44 49.77 -57.08C44.64 -51.71 42.08 -43.38 42.08 -32.08Z M97.33 0L101.29 0L101.29 -31.21L141.32 -31.21L141.32 0L145.23 0L145.23 -64.34L141.32 -64.34L141.32 -34.91L101.29 -34.91L101.29 -64.34L97.33 -64.34Z M207.79 0L212 0L186.4 -64.34L181.18 -64.34L155.58 0L159.71 0L168.58 -22.43L198.92 -22.43ZM170.01 -26.04L183.75 -60.81L197.48 -26.04Z M222.39 0L226.35 0L226.35 -64.34L222.39 -64.34ZM222.44 -70.16L226.26 -70.16L235.65 -82.11L231.09 -82.11Z"></path></g></g></svg>